<?xml version="1.0" encoding="UTF-8" standalone="no"?>
<svg
   version="1.0"
   width="109.458"
   height="109.45754"
   viewBox="0 0 1094.58 1094.5754"
   preserveAspectRatio="xMidYMid"
   id="svg16"
   sodipodi:docname="Snoo_dark.svg"
   inkscape:version="1.2.2 (732a01da63, 2022-12-09)"
   xmlns:inkscape="http://www.inkscape.org/namespaces/inkscape"
   xmlns:sodipodi="http://sodipodi.sourceforge.net/DTD/sodipodi-0.dtd"
   xmlns="http://www.w3.org/2000/svg"
   xmlns:svg="http://www.w3.org/2000/svg">
  <defs
     id="defs20" />
  <sodipodi:namedview
     id="namedview18"
     pagecolor="#ffffff"
     bordercolor="#000000"
     borderopacity="0.25"
     inkscape:showpageshadow="2"
     inkscape:pageopacity="0.0"
     inkscape:pagecheckerboard="0"
     inkscape:deskcolor="#d1d1d1"
     showgrid="false"
     inkscape:zoom="2.3512431"
     inkscape:cx="52.100099"
     inkscape:cy="41.254772"
     inkscape:window-width="1366"
     inkscape:window-height="705"
     inkscape:window-x="1912"
     inkscape:window-y="296"
     inkscape:window-maximized="1"
     inkscape:current-layer="g2113" />
  <g
     id="layer101"
     fill="#551a8b"
     stroke="none"
     transform="translate(-670.21199,-503.26418)" />
  <g
     id="layer102"
     fill="#551a8b"
     stroke="none"
     transform="translate(49.372292,105.70916)">
    <g
       id="g2113">
      <g
         id="g6540">
        <rect
           style="fill:#f9aa75;fill-opacity:1;stroke:#ffffff;stroke-width:0;stroke-dasharray:none;paint-order:markers stroke fill"
           id="rect856"
           width="1094.5754"
           height="1094.5754"
           x="-49.372292"
           y="-105.70916"
           ry="193.97542" />
        <path
           d="M 353,876 C 197,838 75,724 66,606 64,577 55,556 37,538 -11,490 -7,416 48,367 c 28,-25 83,-32 117,-14 26,13 31,13 60,-4 46,-27 136,-56 198,-64 l 54,-7 26,-126 c 15,-69 31,-130 36,-135 6,-6 45,-3 101,8 87,17 91,17 111,-1 49,-44 139,-4 139,61 0,50 -33,85 -81,85 -38,0 -61,-15 -84,-54 C 715,99 591,65 580,77 c -3,2 -14,49 -25,103 l -21,98 46,7 c 67,10 137,32 185,58 37,21 45,23 66,11 72,-40 169,19 169,103 0,30 -33,93 -50,93 -5,0 -10,17 -10,38 0,23 -12,64 -31,101 -47,93 -147,162 -277,190 -68,14 -213,13 -279,-3 z"
           id="path13" />
      </g>
    </g>
  </g>
</svg>
