<?xml version="1.0" encoding="UTF-8" standalone="no"?>
<!-- Created with Inkscape (http://www.inkscape.org/) -->

<svg
   width="178.26198mm"
   height="171.57652mm"
   viewBox="0 0 178.26198 171.57652"
   version="1.1"
   id="svg4948"
   xml:space="preserve"
   inkscape:version="1.2.2 (732a01da63, 2022-12-09)"
   sodipodi:docname="talking-icon-dark.svg"
   xmlns:inkscape="http://www.inkscape.org/namespaces/inkscape"
   xmlns:sodipodi="http://sodipodi.sourceforge.net/DTD/sodipodi-0.dtd"
   xmlns="http://www.w3.org/2000/svg"
   xmlns:svg="http://www.w3.org/2000/svg"><sodipodi:namedview
     id="namedview4950"
     pagecolor="#000000"
     bordercolor="#000000"
     borderopacity="0.25"
     inkscape:showpageshadow="2"
     inkscape:pageopacity="0"
     inkscape:pagecheckerboard="0"
     inkscape:deskcolor="#d1d1d1"
     inkscape:document-units="mm"
     showgrid="false"
     inkscape:zoom="0.48996914"
     inkscape:cx="160.21417"
     inkscape:cy="271.44567"
     inkscape:window-width="1366"
     inkscape:window-height="705"
     inkscape:window-x="1912"
     inkscape:window-y="296"
     inkscape:window-maximized="1"
     inkscape:current-layer="g851"
     shape-rendering="crispEdges" /><defs
     id="defs4945"><filter
       style="color-interpolation-filters:sRGB;"
       inkscape:label="Invert"
       id="filter1575"
       x="-0.01147697"
       y="-0.011934846"
       width="1.0229538"
       height="1.0238697"><feColorMatrix
         values="-1 0 0 0 1 0 -1 0 0 1 0 0 -1 0 1 -0.21 -0.72 -0.07 2 0 "
         result="color2"
         id="feColorMatrix1573" /></filter></defs><g
     inkscape:label="Layer 1"
     inkscape:groupmode="layer"
     id="layer1"
     transform="translate(-19.0914,-67.791016)"><g
       id="g18085"
       style="filter:url(#filter1575)"><g
         id="g851"><path
           id="path5018-2"
           style="fill:none;fill-opacity:0;stroke:#000000;stroke-width:4;stroke-dasharray:none;stroke-opacity:1"
           sodipodi:type="inkscape:offset"
           inkscape:radius="0"
           inkscape:original="M 114.48047 69.791016 A 80.868073 80.868073 0 0 0 33.611328 150.66016 A 80.868073 80.868073 0 0 0 114.48047 231.52734 A 80.868073 80.868073 0 0 0 195.34766 150.66016 A 80.868073 80.868073 0 0 0 114.48047 69.791016 z "
           d="M 114.48047,69.791016 A 80.868073,80.868073 0 0 0 33.611328,150.66016 80.868073,80.868073 0 0 0 114.48047,231.52734 80.868073,80.868073 0 0 0 195.34766,150.66016 80.868073,80.868073 0 0 0 114.48047,69.791016 Z"
           class="UnoptimicedTransforms" /><path
           style="fill:#ff1a1a;fill-opacity:1;stroke:#353839;stroke-width:0.171687;stroke-opacity:1"
           d="m 68.662501,210.65491 c 0.0882,-1.55419 0.656665,-15.88514 0.753152,-18.98708 l 0.03729,-1.1982 -1.510418,-0.59669 c -4.891448,-1.93237 -8.117099,-3.71929 -11.982809,-6.63816 -7.832288,-5.91396 -13.0389,-13.99757 -14.708468,-22.8359 -1.268784,-6.71666 -0.451558,-13.47594 2.41458,-19.97106 2.557618,-5.79594 6.66874,-10.93553 12.052772,-15.06797 8.151447,-6.25651 18.107701,-9.69012 29.199914,-10.07018 l 2.336194,-0.0799 1.806131,-1.68007 c 3.075015,-2.86039 5.519431,-4.67073 9.112019,-6.74839 6.242502,-3.61015 13.706042,-5.97689 21.267112,-6.74391 2.70514,-0.274415 8.55799,-0.273137 11.19321,0.002 11.40833,1.19304 22.18716,5.93242 30.06176,13.21793 1.68461,1.55858 4.73314,5.04456 6.02198,6.88608 3.33427,4.7641 5.63926,10.32188 6.61723,15.95553 0.43815,2.52405 0.59404,7.32611 0.32454,9.99846 -0.6396,6.3425 -3.12986,12.93876 -6.94459,18.39494 -4.60746,6.59003 -11.78365,12.28755 -19.85076,15.76046 -1.45773,0.62754 -1.60379,0.73384 -1.65266,1.20282 -0.0295,0.28294 0.0605,3.21482 0.20006,6.51529 0.6993,16.54071 0.90844,22.0042 0.86289,22.54313 l -0.05,0.59033 -0.81327,-1.19267 c -0.44729,-0.65598 -2.17805,-3.18356 -3.84613,-5.61686 -1.66808,-2.4333 -5.07315,-7.41048 -7.56686,-11.06043 -2.49367,-3.64994 -4.85201,-7.07177 -5.24071,-7.60405 l -0.70675,-0.96778 -3.46552,5.6e-4 c -2.04015,3.6e-4 -4.52548,-0.12268 -6.04252,-0.29908 l -2.57701,-0.29966 -1.10983,0.74723 c -4.85707,3.27019 -10.72844,5.76004 -16.762223,7.10825 -3.839655,0.85796 -5.982999,1.08698 -11.263384,1.20354 l -5.027153,0.11104 -6.37209,9.30918 c -3.504626,5.11976 -6.483452,9.43332 -6.619591,9.58541 -0.223086,0.2492 -0.237712,0.10364 -0.148134,-1.47472 z m 70.528809,-26.46153 c -0.1237,-2.93545 -0.2405,-5.99643 -0.25956,-6.80214 l -0.0345,-1.46492 0.86498,-0.3152 c 5.03913,-1.83629 6.85762,-2.64006 9.74123,-4.3057 9.51745,-5.49748 15.82046,-13.83719 17.76895,-23.51062 0.47233,-2.34494 0.57914,-6.87956 0.22361,-9.49354 -1.4063,-10.33912 -8.22887,-19.64935 -18.69435,-25.51064 -13.1508,-7.36523 -30.62734,-7.98904 -44.47248,-1.5874 -5.799797,2.68168 -10.087179,5.87926 -14.071626,10.49478 -2.636845,3.05447 -4.012908,5.20445 -5.435354,8.49228 -1.89178,4.37267 -2.546777,7.51826 -2.533391,12.16647 0.01293,4.48628 0.651801,7.57269 2.442108,11.7978 4.218794,9.95633 14.027484,18.06791 26.091783,21.57738 4.73899,1.37854 8.48713,1.88023 15.27326,2.04431 l 5.13689,0.12417 2.5349,3.70384 c 5.13129,7.49753 5.52802,8.06526 5.58769,7.99649 0.0335,-0.0385 -0.0403,-2.4719 -0.16406,-5.40736 z"
           id="path4964" /><circle
           style="fill:#000000;fill-opacity:0;stroke:#000000;stroke-width:4;stroke-dasharray:none;stroke-opacity:1;paint-order:stroke markers fill"
           id="path5018"
           cx="101.95947"
           cy="156.49947"
           r="80.868073" /><path
           style="fill:none;fill-opacity:0.842697;stroke:#000000;stroke-width:4;stroke-dasharray:none;stroke-opacity:1;paint-order:markers stroke fill"
           id="path15148"
           sodipodi:type="arc"
           sodipodi:cx="114.46501"
           sodipodi:cy="150.64716"
           sodipodi:rx="80.889725"
           sodipodi:ry="80.889725"
           sodipodi:start="0.0057137016"
           sodipodi:end="1.8402768"
           sodipodi:open="true"
           sodipodi:arc-type="arc"
           d="m 195.35342,151.10933 a 80.889725,80.889725 0 0 1 -32.07676,64.04031 80.889725,80.889725 0 0 1 -70.346976,13.46788" /></g></g></g></svg>
