<?xml version="1.0" encoding="UTF-8" standalone="no"?>
<!-- Created with Inkscape (http://www.inkscape.org/) -->

<svg
   width="178.26198mm"
   height="171.57654mm"
   viewBox="0 0 178.26198 171.57654"
   version="1.1"
   id="svg4948"
   xml:space="preserve"
   inkscape:version="1.2.2 (732a01da63, 2022-12-09)"
   sodipodi:docname="talking-icon-dark.svg"
   xmlns:inkscape="http://www.inkscape.org/namespaces/inkscape"
   xmlns:sodipodi="http://sodipodi.sourceforge.net/DTD/sodipodi-0.dtd"
   xmlns="http://www.w3.org/2000/svg"
   xmlns:svg="http://www.w3.org/2000/svg"><sodipodi:namedview
     id="namedview4950"
     pagecolor="#000000"
     bordercolor="#000000"
     borderopacity="0.25"
     inkscape:showpageshadow="2"
     inkscape:pageopacity="0"
     inkscape:pagecheckerboard="0"
     inkscape:deskcolor="#d1d1d1"
     inkscape:document-units="mm"
     showgrid="false"
     inkscape:zoom="0.692921"
     inkscape:cx="331.20659"
     inkscape:cy="382.43898"
     inkscape:window-width="1366"
     inkscape:window-height="705"
     inkscape:window-x="1912"
     inkscape:window-y="296"
     inkscape:window-maximized="1"
     inkscape:current-layer="g18085"
     shape-rendering="crispEdges" /><defs
     id="defs4945"><filter
       style="color-interpolation-filters:sRGB"
       inkscape:label="Invert"
       id="filter1575"
       x="-0.01147697"
       y="-0.011934846"
       width="1.0229537"
       height="1.0238698"><feColorMatrix
         values="-1 0 0 0 1 0 -1 0 0 1 0 0 -1 0 1 -0.21 -0.72 -0.07 2 0 "
         result="color2"
         id="feColorMatrix1573" /></filter><filter
       style="color-interpolation-filters:sRGB"
       inkscape:label="Invert"
       id="filter4844"
       x="-0.022953941"
       y="-0.023869692"
       width="1.0459075"
       height="1.0477394"><feColorMatrix
         values="-1 0 0 0 1 0 -1 0 0 1 0 0 -1 0 1 -0.21 -0.72 -0.07 2 0 "
         result="color2"
         id="feColorMatrix4842" /></filter></defs><g
     inkscape:label="Layer 1"
     inkscape:groupmode="layer"
     id="layer1"
     transform="translate(-19.0914,-67.791016)"><g
       id="g18085"
       style="filter:url(#filter1575)"><g
         id="g851"
         style="filter:url(#filter4844)"><path
           id="path5018-2"
           style="fill:none;fill-opacity:0;stroke:#ffffff;stroke-width:8;stroke-dasharray:none;stroke-opacity:1"
           sodipodi:type="inkscape:offset"
           inkscape:radius="0"
           inkscape:original="M 114.48047 69.791016 A 80.868073 80.868073 0 0 0 33.611328 150.66016 A 80.868073 80.868073 0 0 0 114.48047 231.52734 A 80.868073 80.868073 0 0 0 195.34766 150.66016 A 80.868073 80.868073 0 0 0 114.48047 69.791016 z "
           d="M 114.48047,69.791016 A 80.868073,80.868073 0 0 0 33.611328,150.66016 80.868073,80.868073 0 0 0 114.48047,231.52734 80.868073,80.868073 0 0 0 195.34766,150.66016 80.868073,80.868073 0 0 0 114.48047,69.791016 Z"
           class="UnoptimicedTransforms" /><path
           style="fill:#325cd2;fill-opacity:1;stroke:#000000;stroke-width:0.171687;stroke-opacity:1"
           d="m 68.662501,210.65491 c 0.0882,-1.55419 0.656665,-15.88514 0.753152,-18.98708 l 0.03729,-1.1982 -1.510418,-0.59669 c -4.891448,-1.93237 -8.117099,-3.71929 -11.982809,-6.63816 -7.832288,-5.91396 -13.0389,-13.99757 -14.708468,-22.8359 -1.268784,-6.71666 -0.451558,-13.47594 2.41458,-19.97106 2.557618,-5.79594 6.66874,-10.93553 12.052772,-15.06797 8.151447,-6.25651 18.107701,-9.69012 29.199914,-10.07018 l 2.336194,-0.0799 1.806131,-1.68007 c 3.075015,-2.86039 5.519431,-4.67073 9.112019,-6.74839 6.242502,-3.61015 13.706042,-5.97689 21.267112,-6.74391 2.70514,-0.274415 8.55799,-0.273137 11.19321,0.002 11.40833,1.19304 22.18716,5.93242 30.06176,13.21793 1.68461,1.55858 4.73314,5.04456 6.02198,6.88608 3.33427,4.7641 5.63926,10.32188 6.61723,15.95553 0.43815,2.52405 0.59404,7.32611 0.32454,9.99846 -0.6396,6.3425 -3.12986,12.93876 -6.94459,18.39494 -4.60746,6.59003 -11.78365,12.28755 -19.85076,15.76046 -1.45773,0.62754 -1.60379,0.73384 -1.65266,1.20282 -0.0295,0.28294 0.0605,3.21482 0.20006,6.51529 0.6993,16.54071 0.90844,22.0042 0.86289,22.54313 l -0.05,0.59033 -0.81327,-1.19267 c -0.44729,-0.65598 -2.17805,-3.18356 -3.84613,-5.61686 -1.66808,-2.4333 -5.07315,-7.41048 -7.56686,-11.06043 -2.49367,-3.64994 -4.85201,-7.07177 -5.24071,-7.60405 l -0.70675,-0.96778 -3.46552,5.6e-4 c -2.04015,3.6e-4 -4.52548,-0.12268 -6.04252,-0.29908 l -2.57701,-0.29966 -1.10983,0.74723 c -4.85707,3.27019 -10.72844,5.76004 -16.762223,7.10825 -3.839655,0.85796 -5.982999,1.08698 -11.263384,1.20354 l -5.027153,0.11104 -6.37209,9.30918 c -3.504626,5.11976 -6.483452,9.43332 -6.619591,9.58541 -0.223086,0.2492 -0.237712,0.10364 -0.148134,-1.47472 z m 70.528809,-26.46153 c -0.1237,-2.93545 -0.2405,-5.99643 -0.25956,-6.80214 l -0.0345,-1.46492 0.86498,-0.3152 c 5.03913,-1.83629 6.85762,-2.64006 9.74123,-4.3057 9.51745,-5.49748 15.82046,-13.83719 17.76895,-23.51062 0.47233,-2.34494 0.57914,-6.87956 0.22361,-9.49354 -1.4063,-10.33912 -8.22887,-19.64935 -18.69435,-25.51064 -13.1508,-7.36523 -30.62734,-7.98904 -44.47248,-1.5874 -5.799797,2.68168 -10.087179,5.87926 -14.071626,10.49478 -2.636845,3.05447 -4.012908,5.20445 -5.435354,8.49228 -1.89178,4.37267 -2.546777,7.51826 -2.533391,12.16647 0.01293,4.48628 0.651801,7.57269 2.442108,11.7978 4.218794,9.95633 14.027484,18.06791 26.091783,21.57738 4.73899,1.37854 8.48713,1.88023 15.27326,2.04431 l 5.13689,0.12417 2.5349,3.70384 c 5.13129,7.49753 5.52802,8.06526 5.58769,7.99649 0.0335,-0.0385 -0.0403,-2.4719 -0.16406,-5.40736 z"
           id="path4964" /><circle
           style="fill:#000000;fill-opacity:0;stroke:#ffffff;stroke-width:8;stroke-dasharray:none;stroke-opacity:1;paint-order:stroke markers fill"
           id="path5018"
           cx="101.95947"
           cy="156.49947"
           r="80.868073" /><path
           style="fill:none;fill-opacity:0.842697;stroke:#ffffff;stroke-width:8;stroke-dasharray:none;stroke-opacity:1;paint-order:markers stroke fill"
           id="path15148"
           sodipodi:type="arc"
           sodipodi:cx="114.46501"
           sodipodi:cy="150.64716"
           sodipodi:rx="80.889725"
           sodipodi:ry="80.889725"
           sodipodi:start="0.0057137016"
           sodipodi:end="1.8402768"
           sodipodi:open="true"
           sodipodi:arc-type="arc"
           d="m 195.35342,151.10933 a 80.889725,80.889725 0 0 1 -32.07676,64.04031 80.889725,80.889725 0 0 1 -70.346976,13.46788" /><path
           style="fill:#ffffff;fill-opacity:1;stroke:none;stroke-width:61.7105;stroke-dasharray:none;stroke-opacity:1;paint-order:markers stroke fill"
           d="M 236.7496,615.46129 C 184.31648,600.38457 146.13325,577.96556 108.08384,539.91615 74.491067,506.32338 52.484116,470.9817 37.897914,427.20227 26.716215,393.64124 24.491338,378.29258 24.491338,334.71496 c 0,-42.49528 2.08524,-57.36294 12.579931,-89.69427 5.475617,-16.8689 24.637501,-58.47413 26.207853,-56.90377 0.538989,0.53899 -2.243327,10.55132 -6.182924,22.24964 -12.372306,36.73856 -16.176884,60.94356 -16.176884,102.91848 0,29.95786 0.847898,40.96559 4.594869,59.65224 21.622472,107.83418 93.604537,196.11076 192.530907,236.114 10.51269,4.25104 20.95081,8.49204 23.19585,9.42443 9.03647,3.75297 -8.43437,1.60265 -24.49134,-3.01442 z"
           id="path11613"
           transform="matrix(0.26458333,0,0,0.26458333,19.0914,67.791016)" /><path
           style="fill:#ffffff;fill-opacity:1;stroke:none;stroke-width:61.7105;stroke-dasharray:none;stroke-opacity:1;paint-order:markers stroke fill"
           d="m 611.28229,456.45222 c -0.0102,-0.95694 2.71877,-9.91246 6.06528,-19.90118 11.88092,-35.46215 15.05154,-56.05844 15.20553,-98.77466 0.1592,-44.16519 -2.88079,-65.4407 -14.40648,-100.82305 C 586.85234,140.88379 511.25419,63.840263 416.6523,31.606595 c -18.81512,-6.410868 -11.43938,-6.473069 13.62525,-0.114904 54.96882,13.943985 99.2418,39.695794 138.80063,80.734749 39.4551,40.93134 64.15644,87.45991 76.40086,143.91214 2.72219,12.55046 3.52071,25.77028 3.45189,57.14646 -0.0808,36.83903 -0.61702,43.05703 -5.49955,63.77412 -5.67481,24.0787 -18.35438,58.15094 -27.02068,72.60926 -2.80999,4.68803 -5.11779,7.74075 -5.12841,6.7838 z"
           id="path11615"
           transform="matrix(0.26458333,0,0,0.26458333,19.0914,67.791016)" /><path
           style="fill:#ffffff;fill-opacity:1;stroke:none;stroke-width:10.909;stroke-dasharray:none;stroke-opacity:1;paint-order:markers stroke fill"
           d="m 273.29955,623.06642 c -6.09317,-0.88188 -17.72098,-2.94392 -17.55223,-3.11266 0.0748,-0.0748 1.49759,-0.009 3.16168,0.14557 4.50392,0.41924 5.96765,0.0133 3.55524,-0.98593 -0.60167,-0.24922 -1.02852,-0.51854 -0.94856,-0.5985 0.10882,-0.10883 15.54443,4.33783 17.73693,5.10961 0.83219,0.29295 -1.73735,0.0521 -5.95306,-0.55809 z"
           id="path11617"
           transform="matrix(0.26458333,0,0,0.26458333,19.0914,67.791016)" /><path
           style="fill:#ffffff;fill-opacity:1;stroke:none;stroke-width:7.99999;stroke-dasharray:none;stroke-opacity:1;paint-order:markers stroke fill"
           d="m 94.695256,233.4131 c -1.568262,0.0474 -3.121504,-0.24847 -4.677511,-0.38184 -1.367877,-0.11725 -2.761308,-0.046 -4.104756,-0.38184 -0.65436,-0.16359 -1.272032,-0.45583 -1.909188,-0.66821 -0.124463,-0.0415 -0.264491,-0.0368 -0.381837,-0.0955 -0.244826,-0.12241 -0.427915,-0.34623 -0.668215,-0.4773 -0.399963,-0.21816 -0.842717,-0.3515 -1.240973,-0.57276 -0.139078,-0.0773 -0.254558,-0.19091 -0.381839,-0.28637 -0.222739,-0.12728 -0.441856,-0.26112 -0.668215,-0.38184 -0.729523,-0.38908 -1.459167,-0.77731 -2.195566,-1.14552 -0.509119,-0.25455 -0.0723,0.11091 -0.668216,-0.28637 -0.169529,-0.11302 -0.295063,-0.29072 -0.477297,-0.38184 -0.423095,-0.21155 -0.904166,-0.28518 -1.336432,-0.4773 -0.383087,-0.17026 -0.68132,-0.50433 -1.050054,-0.66821 -0.148265,-0.0659 -0.326652,-0.0352 -0.477298,-0.0955 -0.172268,-0.0689 -0.311343,-0.20341 -0.477295,-0.28638 -0.634775,-0.31739 -1.280869,-0.61627 -1.909189,-0.95459 -0.326726,-0.17593 -0.622691,-0.40681 -0.954595,-0.57276 -0.153265,-0.0766 -0.330361,-0.10276 -0.477298,-0.19092 -0.804894,-0.48294 -0.136197,-0.2905 -0.954593,-0.66822 -0.246845,-0.11392 -0.516829,-0.17244 -0.763674,-0.28637 -0.531196,-0.24517 -0.970082,-0.6565 -1.527353,-0.85914 -0.983689,-0.3577 0.0307,0.20627 -0.954592,-0.28638 -0.932987,-0.46649 -0.397574,-0.34499 -1.431891,-0.66821 -0.250449,-0.0783 -0.517991,-0.0988 -0.763678,-0.19092 -0.266483,-0.0999 -0.505769,-0.26148 -0.763674,-0.38184 -0.465836,-0.21739 -0.966055,-0.35536 -1.431891,-0.57276 -0.791686,-0.36945 -1.486934,-0.93584 -2.195565,-1.43189 -0.467807,-0.32746 -0.990502,-0.58677 -1.431894,-0.95459 -0.103708,-0.0864 -0.17405,-0.2115 -0.286377,-0.28638 -0.142576,-0.0951 -0.330361,-0.10276 -0.477297,-0.19092 -0.131387,-0.0788 -0.345911,-0.303 -0.477298,-0.38184 -0.257707,-0.15462 -0.601424,-0.22721 -0.859134,-0.38183 -0.07717,-0.0463 -0.110421,-0.15067 -0.190918,-0.19092 -0.818563,-0.40929 0.09325,0.30886 -0.859136,-0.28638 -0.11448,-0.0716 -0.171898,-0.21483 -0.286377,-0.28638 -0.313749,-0.19609 -0.733756,-0.28752 -1.050055,-0.4773 -0.07717,-0.0463 -0.118917,-0.13691 -0.190918,-0.19092 -0.16682,-0.12511 -0.284779,-0.0947 -0.477298,-0.19091 -0.11277,-0.0564 -0.18107,-0.21618 -0.286377,-0.28638 -0.09546,-0.0636 -0.177538,-0.15464 -0.28638,-0.19092 -0.146939,-0.049 -0.262715,0.0832 -0.381836,-0.0955 -0.0353,-0.053 0.0353,-0.13797 0,-0.19092 -0.07894,-0.1184 -0.281215,-0.0903 -0.381838,-0.19092 -0.05031,-0.0503 -0.06364,-0.12728 -0.09546,-0.19092 -0.06364,-0.0955 -0.109794,-0.20525 -0.190918,-0.28637 -1.247902,-0.93593 0.264755,0.26475 -0.572757,-0.57276 -0.266824,-0.26683 -0.623657,-0.44971 -0.859134,-0.76368 -0.127728,-0.1703 -0.233365,-0.42428 -0.381839,-0.57275 -0.219379,-0.21938 -0.190918,0.0247 -0.190918,-0.19092"
           id="path11684" /><path
           style="fill:none;fill-opacity:1;stroke:#ffffff;stroke-width:7.99999;stroke-dasharray:none;stroke-opacity:1;paint-order:markers stroke fill"
           d="m 84.767475,231.98121 c -2.998239,-1.24991 -6.009756,-2.15488 -8.782264,-3.81838 -0.308697,-0.18522 -0.42215,-0.64983 -0.763675,-0.76367 -0.241495,-0.0805 -0.55187,0.1412 -0.763677,0 -0.236805,-0.15788 -0.145031,-0.60581 -0.381836,-0.76368 -0.947224,-0.63148 -2.078514,-0.94164 -3.054702,-1.52735 -1.909188,-1.14551 0,-0.38184 -1.145514,-1.14551 -2.01337,-1.34225 0.739368,0.67758 -1.909188,-0.38184 -0.477298,-0.19092 -0.715944,-0.85913 -1.145513,-1.14551 -0.709504,-0.47301 -3.037343,-1.12816 -3.436538,-1.52735 -0.790036,-0.79004 1.20728,0.0309 -0.381839,-0.76368 -0.768112,-0.38406 -2.350614,-1.05796 -3.054699,-1.52735 -1.204974,-0.80332 -1.246717,-2.19748 -2.672863,-2.67286 -0.362244,-0.12075 -0.790988,0.14181 -1.145514,0 -1.144397,-0.45776 -0.460793,-0.84263 -1.145513,-1.52735 -0.09,-0.09 -0.254559,0 -0.381839,0 -0.254558,-0.25456 -0.529389,-0.49035 -0.763675,-0.76368 -0.530384,-0.61878 -0.951069,-1.33291 -1.52735,-1.90919 -0.3245,-0.3245 -0.870167,-0.39654 -1.145513,-0.76367 -0.152736,-0.20365 0.113842,-0.53599 0,-0.76368 -0.686636,-1.37327 -0.661683,-0.27985 -1.52735,-1.14551 -0.201247,-0.20125 -0.145034,-0.60581 -0.381838,-0.76368 -0.211805,-0.1412 -0.551871,0.14121 -0.763675,0 -0.402328,-0.26822 -1.296572,-1.83156 -1.909189,-2.29102 -0.646234,-0.48468 -2.243307,-1.64669 -2.672864,-2.29103 -0.766288,-1.14943 -1.287946,-2.43346 -2.291025,-3.43654 -0.611631,-0.61163 -1.457098,-0.62317 -1.909189,-1.52735 -0.113842,-0.22768 0.113842,-0.53599 0,-0.76367 -0.30547,-0.61095 -1.22188,-0.91641 -1.52735,-1.52735 -0.319331,-0.63867 -0.673512,-0.81935 -1.145513,-1.52736 -0.0706,-0.1059 0,-0.25455 0,-0.38183 -0.127279,-0.25456 -0.180592,-0.56243 -0.381838,-0.76368 -0.201246,-0.20124 -0.605805,-0.14503 -0.763675,-0.38184 -0.141204,-0.2118 0.0805,-0.52217 0,-0.76367 -0.301001,-0.903 -1.865225,-1.43942 -2.291026,-2.29103 -0.113842,-0.22768 0.141203,-0.55187 0,-0.76367 -0.15787,-0.23681 -0.562429,-0.18059 -0.763676,-0.38184 -0.194829,-0.19483 -4.178666,-6.78689 -4.200214,-6.87308 -0.231458,-0.92583 -0.518912,-1.69381 -0.763675,-2.67286 -0.166801,-0.66721 0.109809,-1.63217 0,-2.29103 0.13262,-0.7769 -0.629253,-1.23708 -0.763675,-1.90919 -0.283261,-1.4163 -0.480525,-2.78445 -0.763676,-4.20021 -0.136781,-0.68391 -1.089302,-2.39181 -1.145513,-2.67286 -0.09985,-0.49923 0.09985,-1.02812 0,-1.52735 -0.0353,-0.17651 -0.324916,-0.21108 -0.381837,-0.38184 -0.289166,-0.8675 -0.0035,-0.77066 -0.381838,-1.52735 -0.07148,-0.14296 -0.578789,-10.1006 -0.381838,-10.69146 0.05692,-0.17076 0.338182,-0.20721 0.381838,-0.38183 0.123479,-0.49392 -0.123479,-1.03344 0,-1.52736 0.299239,-1.19695 0.757855,-2.27356 1.145513,-3.43653 0.160997,-0.48299 -0.09985,-1.02812 0,-1.52736 0.131178,-0.65588 0.588229,-1.00101 0.763675,-1.52735 0.160997,-0.48299 -0.123479,-1.03343 0,-1.52734 0.283732,-1.13493 0.564997,-2.24447 0.763676,-3.43655 0.109602,-0.65761 -0.210605,-2.04104 0,-2.67286 0.04025,-0.12075 0.324917,0.11384 0.381837,0 0.349999,-0.7 -0.192848,-1.90147 0,-2.67286 0.236729,-0.94692 0.945277,-1.67168 1.145513,-2.67286 0.291254,-1.45627 -0.54101,-0.0635 0.381838,-1.90919 0.284446,-0.5689 0.943211,-1.30229 1.145513,-1.90919 0.55107,-1.65321 -0.729958,0.14034 0.381838,-1.52735 0.199692,-0.29954 0.649833,-0.42215 0.763675,-0.76368 0.0805,-0.24149 -0.113842,-0.53599 0,-0.76367 0.594922,-1.18985 2.074281,-1.85754 2.672863,-3.05471 0.205232,-0.41046 0.558444,-0.73504 0.763676,-1.14551 0.113842,-0.22768 -0.113842,-0.53599 0,-0.76367 0.05692,-0.11385 0.291838,0.09 0.381837,0 0.479709,-0.47971 0.108724,-1.36296 0.381838,-1.90919 0.05692,-0.11384 0.291838,0.09 0.381838,0 0.0685,-0.0685 0.699907,-1.33605 0.763675,-1.52735 0.211157,-0.63347 0.27256,-2.18175 0.763675,-2.67286 0.09,-0.09 0.267996,0.0569 0.381838,0 0.369877,-0.18494 1.145513,-1.78432 1.145513,-2.29103"
           id="path12005" /><path
           style="fill:none;fill-opacity:1;stroke:#ffffff;stroke-width:7.99999;stroke-dasharray:none;stroke-opacity:1;paint-order:markers stroke fill"
           d="m 179.08138,194.17928 c 2.18622,-6.55868 0.60331,-2.70937 3.81837,-8.78227 1.71817,-3.24542 1.1049,-1.46642 2.67287,-3.81837 0.6473,-0.97095 0.78248,-1.96561 1.14551,-3.0547 0.3452,-1.03561 1.20814,-2.09707 1.52735,-3.05471 0.2415,-0.34264 -0.12075,-0.78327 0,-1.14551 0.37232,-1.11696 0.5623,-2.22825 0.76368,-3.43654 0.23884,-1.43303 0,-3.11993 0,-4.58205 0,-3.56382 0,-7.12764 0,-10.69145 0,-0.97916 -0.23358,-2.12042 0,-3.05471 0.43364,-1.73456 0.3208,-3.19239 0.76367,-4.96389 0.26924,-1.07693 -0.21789,-2.34706 0,-3.43653 0.0353,-0.17651 0.32492,-0.21108 0.38184,-0.38184 0.3243,-0.97289 0.22948,-3.66412 0,-4.58205 -0.26249,-1.04997 -0.51138,-2.04553 -0.76368,-3.0547 0.23015,-0.69111 -0.61855,-0.71016 -0.76367,-1.14552 -0.0805,-0.24149 0.0499,-0.51406 0,-0.76367 -0.13212,-0.66061 -1.09176,-2.78315 -1.52735,-3.43654 -0.2559,-0.38385 -1.7796,-2.66591 -1.90919,-3.0547 -0.31684,-0.95052 -0.51885,-2.07539 -0.76368,-3.0547 -0.20214,-0.8086 -0.94336,-1.48243 -1.14551,-2.29103 -0.18832,-0.75328 0.34357,-1.98572 0,-2.67286 -0.36072,-0.72145 -0.48863,-1.46588 -0.76367,-2.29103 -0.11947,-0.35839 -2.09813,-4.32486 -2.29103,-4.58205 -0.216,-0.288 -0.60268,-0.44168 -0.76368,-0.76368 -0.11384,-0.22768 0.0945,-0.52732 0,-0.76367 -0.17753,-0.44384 -1.21857,-2.59154 -1.52735,-3.0547 -0.29372,-0.44058 -0.85179,-0.70494 -1.14551,-1.14552 -0.93799,-0.13615 -0.15857,-0.81061 -0.38184,-1.14551 -0.19969,-0.29954 -0.57845,-0.45498 -0.76367,-0.76367 -0.70205,-1.17009 -1.28859,-2.81594 -2.29103,-3.81838 -0.81643,-0.81643 -0.78995,-0.39498 -1.52735,-0.76368 -0.11384,-0.0569 0.0569,-0.26799 0,-0.38183 -0.31179,-0.623583 -0.97991,-1.471244 -1.52735,-1.909191 -0.68855,-0.550841 -1.59748,-1.180581 -2.29103,-1.527352 -0.58481,-0.292407 -0.2986,-0.68044 -0.76367,-1.145513 -0.78248,-0.782485 -2.24818,-1.102667 -3.0547,-1.909188 -0.09,-0.09 0.09,-0.291837 0,-0.381837 -0.40249,-0.402493 -1.07199,-0.422149 -1.52735,-0.763676 -0.69366,-0.520241 -1.8107,-1.57054 -2.29103,-2.291025 -0.76948,-1.154216 2.26641,0.874544 -0.76367,-1.145513 -0.3349,-0.223263 -0.81062,-0.158576 -1.14552,-0.381838 -0.87722,-0.584814 0.16374,-0.218105 -0.76367,-1.145513 -0.20125,-0.201246 -0.56243,-0.180592 -0.76368,-0.381838 -0.43275,-0.432754 -0.51266,-1.210927 -1.14551,-1.52735 -0.11384,-0.05692 -0.29184,0.09 -0.38184,0 -0.09,-0.09 0.09,-0.291838 0,-0.381838 -0.09,-0.09 -0.26799,0.05692 -0.38184,0 -0.41046,-0.205232 -0.78716,-0.476995 -1.14551,-0.763675 -0.69848,-0.558787 -1.2107,-1.350402 -1.90919,-1.909189 -0.75622,-0.604974 -1.98977,-0.462421 -2.67286,-1.145513 -0.09,-0.09 0.11384,-0.324916 0,-0.381837 -0.34153,-0.170763 -0.8278,0.211805 -1.14551,0 -0.29954,-0.199692 -0.45498,-0.578457 -0.76368,-0.763676 -1.03098,-0.618591 -2.67597,-1.146548 -3.81838,-1.52735 -0.25459,-0.08486 -2.30513,-0.518525 -2.67286,-0.763675 -0.1059,-0.0706 0.11384,-0.324917 0,-0.381838 -0.78684,-0.393422 -3.33426,-0.279561 -3.81837,-0.763675 -0.09,-0.09 0.12074,-0.341589 0,-0.381838 -0.36225,-0.120748 -0.7711,0.07488 -1.14552,0 -0.39467,-0.07894 -0.8609,-0.09723 -1.14551,-0.381838 -0.09,-0.09 0.11384,-0.324916 0,-0.381837 -0.35219,-0.176093 -2.78103,-0.599799 -3.43654,-0.763676 -1.17032,-0.292578 -2.67621,0.380723 -3.81838,0 -1.84085,-0.613619 -3.06936,-0.763675 -4.96389,-0.763675"
           id="path12070" /></g></g></g></svg>
